<?xml version="1.0" encoding="UTF-8" standalone="no"?>
<!DOCTYPE svg PUBLIC "-//W3C//DTD SVG 1.1//EN"
 "http://www.w3.org/Graphics/SVG/1.1/DTD/svg11.dtd">
<!-- Generated by graphviz version 2.40.1 (20161225.0304)
 -->
<!-- Pages: 1 -->
<svg width="541pt" height="392pt"
 viewBox="0.00 0.00 541.00 392.00" xmlns="http://www.w3.org/2000/svg" xmlns:xlink="http://www.w3.org/1999/xlink">
<g id="graph0" class="graph" transform="scale(1 1) rotate(0) translate(4 388)">
<polygon fill="#ffffff" stroke="transparent" points="-4,4 -4,-388 537,-388 537,4 -4,4"/>
<!-- 1 -->
<g id="node1" class="node">
<title>1</title>
<ellipse fill="none" stroke="#ff0000" cx="197" cy="-366" rx="27" ry="18"/>
<text text-anchor="middle" x="197" y="-363.5" font-family="Calibri" font-size="10.00" fill="#000000">1</text>
</g>
<!-- 1&#45;&gt;1 -->
<g id="edge1" class="edge">
<title>1&#45;&gt;1</title>
<path fill="none" stroke="#0000ff" d="M221.53,-373.75C232.51,-374.49 242,-371.91 242,-366 242,-362.03 237.72,-359.56 231.57,-358.59"/>
<polygon fill="#0000ff" stroke="#0000ff" points="231.6428,-355.0906 221.53,-358.25 231.4058,-362.0865 231.6428,-355.0906"/>
<text text-anchor="middle" x="257.5" y="-364.1" font-family="Calibri" font-size="8.00" fill="#000000">0.158</text>
</g>
<!-- 2 -->
<g id="node2" class="node">
<title>2</title>
<ellipse fill="none" stroke="#ff0000" cx="270" cy="-279" rx="27" ry="18"/>
<text text-anchor="middle" x="270" y="-276.5" font-family="Calibri" font-size="10.00" fill="#000000">2</text>
</g>
<!-- 1&#45;&gt;2 -->
<g id="edge2" class="edge">
<title>1&#45;&gt;2</title>
<path fill="none" stroke="#0000ff" d="M201.16,-348.12C204.25,-337.66 209.28,-324.66 217,-315 223.12,-307.34 231.3,-300.69 239.41,-295.26"/>
<polygon fill="#0000ff" stroke="#0000ff" points="241.4433,-298.1167 248.07,-289.85 237.7345,-292.1799 241.4433,-298.1167"/>
<text text-anchor="middle" x="232.5" y="-320.6" font-family="Calibri" font-size="8.00" fill="#000000">0.211</text>
</g>
<!-- 3 -->
<g id="node3" class="node">
<title>3</title>
<ellipse fill="none" stroke="#ff0000" cx="205" cy="-18" rx="27" ry="18"/>
<text text-anchor="middle" x="205" y="-15.5" font-family="Calibri" font-size="10.00" fill="#000000">3</text>
</g>
<!-- 1&#45;&gt;3 -->
<g id="edge3" class="edge">
<title>1&#45;&gt;3</title>
<path fill="none" stroke="#0000ff" d="M170,-363.46C139.86,-359.7 90.426,-350.72 53,-330 24.4,-314.17 0,-311.69 0,-279 0,-279 0,-279 0,-105 0,-72.31 24.302,-69.654 53,-54 89.041,-34.34 135.61,-25.343 167.65,-21.273"/>
<polygon fill="#0000ff" stroke="#0000ff" points="168.4033,-24.7089 177.93,-20.073 167.5916,-17.7561 168.4033,-24.7089"/>
<text text-anchor="middle" x="15.5" y="-190.1" font-family="Calibri" font-size="8.00" fill="#000000">0.158</text>
</g>
<!-- 4 -->
<g id="node4" class="node">
<title>4</title>
<ellipse fill="none" stroke="#ff0000" cx="269" cy="-105" rx="27" ry="18"/>
<text text-anchor="middle" x="269" y="-102.5" font-family="Calibri" font-size="10.00" fill="#000000">4</text>
</g>
<!-- 1&#45;&gt;4 -->
<g id="edge4" class="edge">
<title>1&#45;&gt;4</title>
<path fill="none" stroke="#0000ff" d="M224.05,-364.07C287.89,-359.27 443.84,-346.02 461,-330 522.4,-272.67 522.35,-200.45 463,-141 441.48,-119.44 356.23,-110.46 306.18,-106.99"/>
<polygon fill="#0000ff" stroke="#0000ff" points="306.2768,-103.489 296.07,-106.33 305.8207,-110.4741 306.2768,-103.489"/>
<text text-anchor="middle" x="522.5" y="-233.6" font-family="Calibri" font-size="8.00" fill="#000000">0.237</text>
</g>
<!-- 5 -->
<g id="node5" class="node">
<title>5</title>
<ellipse fill="none" stroke="#ff0000" cx="138" cy="-192" rx="27" ry="18"/>
<text text-anchor="middle" x="138" y="-189.5" font-family="Calibri" font-size="10.00" fill="#000000">5</text>
</g>
<!-- 1&#45;&gt;5 -->
<g id="edge5" class="edge">
<title>1&#45;&gt;5</title>
<path fill="none" stroke="#0000ff" d="M177.35,-353.41C160.41,-341.29 137.14,-321.24 127,-297 116.56,-272.04 121.81,-240.95 128.14,-219.1"/>
<polygon fill="#0000ff" stroke="#0000ff" points="131.5041,-220.0696 131.17,-209.48 124.8274,-217.9666 131.5041,-220.0696"/>
<text text-anchor="middle" x="142.5" y="-277.1" font-family="Calibri" font-size="8.00" fill="#000000">0.237</text>
</g>
<!-- 2&#45;&gt;1 -->
<g id="edge6" class="edge">
<title>2&#45;&gt;1</title>
<path fill="none" stroke="#0000ff" d="M265,-296.83C261.45,-307.27 255.9,-320.27 248,-330 242.16,-337.2 234.53,-343.6 226.96,-348.95"/>
<polygon fill="#0000ff" stroke="#0000ff" points="224.6326,-346.2914 218.2,-354.71 228.4785,-352.1403 224.6326,-346.2914"/>
<text text-anchor="middle" x="265" y="-320.6" font-family="Calibri" font-size="8.00" fill="#000000">0.2</text>
</g>
<!-- 2&#45;&gt;2 -->
<g id="edge7" class="edge">
<title>2&#45;&gt;2</title>
<path fill="none" stroke="#0000ff" d="M294.53,-286.75C305.51,-287.49 315,-284.91 315,-279 315,-275.03 310.72,-272.56 304.57,-271.59"/>
<polygon fill="#0000ff" stroke="#0000ff" points="304.6428,-268.0906 294.53,-271.25 304.4058,-275.0865 304.6428,-268.0906"/>
<text text-anchor="middle" x="330.5" y="-277.1" font-family="Calibri" font-size="8.00" fill="#000000">0.175</text>
</g>
<!-- 2&#45;&gt;3 -->
<g id="edge8" class="edge">
<title>2&#45;&gt;3</title>
<path fill="none" stroke="#0000ff" d="M296.46,-274.59C328.06,-268.75 378.16,-257.48 390,-243 443.18,-177.98 446.34,-116.31 390,-54 370.68,-32.633 290.42,-23.628 242.18,-20.088"/>
<polygon fill="#0000ff" stroke="#0000ff" points="242.3372,-16.5906 232.12,-19.394 241.8554,-23.574 242.3372,-16.5906"/>
<text text-anchor="middle" x="446.5" y="-146.6" font-family="Calibri" font-size="8.00" fill="#000000">0.225</text>
</g>
<!-- 2&#45;&gt;4 -->
<g id="edge9" class="edge">
<title>2&#45;&gt;4</title>
<path fill="none" stroke="#0000ff" d="M267.99,-260.87C266.56,-246.97 264.75,-227.3 264,-210 262.87,-184.07 264.54,-154.55 266.25,-133.42"/>
<polygon fill="#0000ff" stroke="#0000ff" points="269.7583,-133.4736 267.13,-123.21 262.7841,-132.8725 269.7583,-133.4736"/>
<text text-anchor="middle" x="279.5" y="-190.1" font-family="Calibri" font-size="8.00" fill="#000000">0.175</text>
</g>
<!-- 2&#45;&gt;5 -->
<g id="edge10" class="edge">
<title>2&#45;&gt;5</title>
<path fill="none" stroke="#0000ff" d="M252.87,-264.86C239.62,-254.2 220.63,-239.5 203,-228 192.03,-220.84 179.53,-213.69 168.45,-207.68"/>
<polygon fill="#0000ff" stroke="#0000ff" points="170.0002,-204.5401 159.53,-202.92 166.7046,-210.7158 170.0002,-204.5401"/>
<text text-anchor="middle" x="238.5" y="-233.6" font-family="Calibri" font-size="8.00" fill="#000000">0.225</text>
</g>
<!-- 3&#45;&gt;1 -->
<g id="edge11" class="edge">
<title>3&#45;&gt;1</title>
<path fill="none" stroke="#0000ff" d="M178.72,-22.34C138.68,-30.622 67,-52.746 67,-105 67,-279 67,-279 67,-279 67,-324.5 122.67,-347.7 161.15,-358.31"/>
<polygon fill="#0000ff" stroke="#0000ff" points="160.4522,-361.7446 171.01,-360.86 162.2049,-354.9676 160.4522,-361.7446"/>
<text text-anchor="middle" x="76" y="-190.1" font-family="Calibri" font-size="8.00" fill="#000000">0.2</text>
</g>
<!-- 3&#45;&gt;2 -->
<g id="edge12" class="edge">
<title>3&#45;&gt;2</title>
<path fill="none" stroke="#0000ff" d="M231.69,-21.59C266.78,-27.904 327.13,-44.628 354,-87 390.38,-144.37 329.01,-220.19 293.12,-257.03"/>
<polygon fill="#0000ff" stroke="#0000ff" points="290.473,-254.7277 285.89,-264.28 295.4296,-259.6706 290.473,-254.7277"/>
<text text-anchor="middle" x="372" y="-146.6" font-family="Calibri" font-size="8.00" fill="#000000">0.2</text>
</g>
<!-- 3&#45;&gt;3 -->
<g id="edge13" class="edge">
<title>3&#45;&gt;3</title>
<path fill="none" stroke="#0000ff" d="M229.53,-25.752C240.51,-26.49 250,-23.906 250,-18 250,-14.032 245.72,-11.563 239.57,-10.594"/>
<polygon fill="#0000ff" stroke="#0000ff" points="239.6446,-7.0946 229.53,-10.248 239.4035,-14.0904 239.6446,-7.0946"/>
<text text-anchor="middle" x="265.5" y="-16.1" font-family="Calibri" font-size="8.00" fill="#000000">0.171</text>
</g>
<!-- 3&#45;&gt;4 -->
<g id="edge14" class="edge">
<title>3&#45;&gt;4</title>
<path fill="none" stroke="#0000ff" d="M207.86,-36.227C210.14,-46.553 214.14,-59.303 221,-69 225.91,-75.936 232.56,-82.107 239.35,-87.296"/>
<polygon fill="#0000ff" stroke="#0000ff" points="237.7109,-90.4229 247.9,-93.327 241.7458,-84.7028 237.7109,-90.4229"/>
<text text-anchor="middle" x="230" y="-59.6" font-family="Calibri" font-size="8.00" fill="#000000">0.2</text>
</g>
<!-- 3&#45;&gt;5 -->
<g id="edge15" class="edge">
<title>3&#45;&gt;5</title>
<path fill="none" stroke="#0000ff" d="M196.68,-35.214C185.52,-58.728 165.55,-102.38 152,-141 149.41,-148.39 146.99,-156.51 144.92,-164.06"/>
<polygon fill="#0000ff" stroke="#0000ff" points="141.4988,-163.307 142.32,-173.87 148.2652,-165.1004 141.4988,-163.307"/>
<text text-anchor="middle" x="187.5" y="-103.1" font-family="Calibri" font-size="8.00" fill="#000000">0.229</text>
</g>
<!-- 4&#45;&gt;1 -->
<g id="edge16" class="edge">
<title>4&#45;&gt;1</title>
<path fill="none" stroke="#0000ff" d="M295.34,-109.47C326.14,-115.3 374.31,-126.48 385,-141 426.88,-197.84 399.63,-242.29 355,-297 324.6,-334.26 270.14,-351.93 233.78,-359.92"/>
<polygon fill="#0000ff" stroke="#0000ff" points="232.6828,-356.5721 223.59,-362.01 234.0893,-363.4293 232.6828,-356.5721"/>
<text text-anchor="middle" x="414.5" y="-233.6" font-family="Calibri" font-size="8.00" fill="#000000">0.258</text>
</g>
<!-- 4&#45;&gt;2 -->
<g id="edge17" class="edge">
<title>4&#45;&gt;2</title>
<path fill="none" stroke="#0000ff" d="M277.55,-122.37C283.77,-136.03 291.67,-155.74 295,-174 297.87,-189.74 297.77,-194.24 295,-210 292.48,-224.36 287.22,-239.66 282.17,-252.2"/>
<polygon fill="#0000ff" stroke="#0000ff" points="278.8674,-251.025 278.22,-261.6 285.3207,-253.7368 278.8674,-251.025"/>
<text text-anchor="middle" x="312.5" y="-190.1" font-family="Calibri" font-size="8.00" fill="#000000">0.194</text>
</g>
<!-- 4&#45;&gt;3 -->
<g id="edge18" class="edge">
<title>4&#45;&gt;3</title>
<path fill="none" stroke="#0000ff" d="M260.18,-87.857C254.63,-77.662 247.02,-64.677 239,-54 235.58,-49.446 231.65,-44.839 227.71,-40.51"/>
<polygon fill="#0000ff" stroke="#0000ff" points="230.1119,-37.9558 220.7,-33.091 225.0239,-42.7634 230.1119,-37.9558"/>
<text text-anchor="middle" x="264.5" y="-59.6" font-family="Calibri" font-size="8.00" fill="#000000">0.226</text>
</g>
<!-- 4&#45;&gt;4 -->
<g id="edge19" class="edge">
<title>4&#45;&gt;4</title>
<path fill="none" stroke="#0000ff" d="M293.53,-112.75C304.51,-113.49 314,-110.91 314,-105 314,-101.03 309.72,-98.563 303.57,-97.594"/>
<polygon fill="#0000ff" stroke="#0000ff" points="303.6446,-94.0946 293.53,-97.248 303.4035,-101.0904 303.6446,-94.0946"/>
<text text-anchor="middle" x="329.5" y="-103.1" font-family="Calibri" font-size="8.00" fill="#000000">0.097</text>
</g>
<!-- 4&#45;&gt;5 -->
<g id="edge20" class="edge">
<title>4&#45;&gt;5</title>
<path fill="none" stroke="#0000ff" d="M252.16,-119.16C239.13,-129.84 220.42,-144.54 203,-156 192.05,-163.2 179.56,-170.35 168.48,-176.36"/>
<polygon fill="#0000ff" stroke="#0000ff" points="166.7346,-173.3242 159.56,-181.12 170.0302,-179.4999 166.7346,-173.3242"/>
<text text-anchor="middle" x="238.5" y="-146.6" font-family="Calibri" font-size="8.00" fill="#000000">0.226</text>
</g>
<!-- 5&#45;&gt;1 -->
<g id="edge21" class="edge">
<title>5&#45;&gt;1</title>
<path fill="none" stroke="#0000ff" d="M142.56,-210.04C145.14,-219.85 148.53,-232.16 152,-243 157.81,-261.19 175.38,-308.48 186.77,-338.84"/>
<polygon fill="#0000ff" stroke="#0000ff" points="183.576,-340.2903 190.37,-348.42 190.1286,-337.8279 183.576,-340.2903"/>
<text text-anchor="middle" x="185.5" y="-277.1" font-family="Calibri" font-size="8.00" fill="#000000">0.243</text>
</g>
<!-- 5&#45;&gt;2 -->
<g id="edge22" class="edge">
<title>5&#45;&gt;2</title>
<path fill="none" stroke="#0000ff" d="M144.71,-209.74C149.65,-220.68 157.38,-234.25 168,-243 170.8,-245.31 207.49,-257.98 236.07,-267.65"/>
<polygon fill="#0000ff" stroke="#0000ff" points="235.1759,-271.042 245.77,-270.92 237.4121,-264.4088 235.1759,-271.042"/>
<text text-anchor="middle" x="183.5" y="-233.6" font-family="Calibri" font-size="8.00" fill="#000000">0.216</text>
</g>
<!-- 5&#45;&gt;3 -->
<g id="edge23" class="edge">
<title>5&#45;&gt;3</title>
<path fill="none" stroke="#0000ff" d="M130.03,-174.4C121.49,-152.81 110.82,-115.55 124,-87 134.45,-64.372 156.38,-46.43 174.79,-34.519"/>
<polygon fill="#0000ff" stroke="#0000ff" points="176.8035,-37.3895 183.48,-29.163 173.1306,-31.4304 176.8035,-37.3895"/>
<text text-anchor="middle" x="139.5" y="-103.1" font-family="Calibri" font-size="8.00" fill="#000000">0.243</text>
</g>
<!-- 5&#45;&gt;4 -->
<g id="edge24" class="edge">
<title>5&#45;&gt;4</title>
<path fill="none" stroke="#0000ff" d="M144.72,-174.27C149.67,-163.33 157.39,-149.77 168,-141 170.76,-138.72 206.68,-126.18 234.91,-116.53"/>
<polygon fill="#0000ff" stroke="#0000ff" points="236.1726,-119.7975 244.51,-113.26 233.9155,-113.1713 236.1726,-119.7975"/>
<text text-anchor="middle" x="183.5" y="-146.6" font-family="Calibri" font-size="8.00" fill="#000000">0.162</text>
</g>
<!-- 5&#45;&gt;5 -->
<g id="edge25" class="edge">
<title>5&#45;&gt;5</title>
<path fill="none" stroke="#0000ff" d="M162.53,-199.75C173.51,-200.49 183,-197.91 183,-192 183,-188.03 178.72,-185.56 172.57,-184.59"/>
<polygon fill="#0000ff" stroke="#0000ff" points="172.6428,-181.0906 162.53,-184.25 172.4058,-188.0865 172.6428,-181.0906"/>
<text text-anchor="middle" x="198.5" y="-190.1" font-family="Calibri" font-size="8.00" fill="#000000">0.135</text>
</g>
</g>
</svg>
